Coordinates
version=1
nRows=10
nColumns=63
inDegrees=yes

Units are S.I. units (second, meters, Newtons, ...)
If the header above contains a line with 'inDegrees', this indicates whether rotational values are in degrees (yes) or radians (no).

endheader
time	pelvis_tilt	pelvis_list	pelvis_rotation	pelvis_tx	pelvis_ty	pelvis_tz	hip_flexion_r	hip_adduction_r	hip_rotation_r	knee_angle_r	knee_angle_r_beta	ankle_angle_r	subtalar_angle_r	mtp_angle_r	hip_flexion_l	hip_adduction_l	hip_rotation_l	knee_angle_l	knee_angle_l_beta	ankle_angle_l	subtalar_angle_l	mtp_angle_l	L5_S1_Flex_Ext	L5_S1_Lat_Bending	L5_S1_axial_rotation	L4_L5_Flex_Ext	L4_L5_Lat_Bending	L4_L5_axial_rotation	L3_L4_Flex_Ext	L3_L4_Lat_Bending	L3_L4_axial_rotation	L2_L3_Flex_Ext	L2_L3_Lat_Bending	L2_L3_axial_rotation	L1_L2_Flex_Ext	L1_L2_Lat_Bending	L1_L2_axial_rotation	L1_T12_Flex_Ext	L1_T12_Lat_Bending	L1_T12_axial_rotation	Abs_r3	Abs_r2	Abs_r1	Abs_t1	Abs_t2	neck_flexion	neck_bending	neck_rotation	arm_flex_r	arm_add_r	arm_rot_r	elbow_flex_r	pro_sup_r	wrist_flex_r	wrist_dev_r	arm_flex_l	arm_add_l	arm_rot_l	elbow_flex_l	pro_sup_l	wrist_flex_l	wrist_dev_l
      9.75000000	     24.37167713	      5.61886919	    -94.54687546	      0.51062146	      0.90863882	      0.05915465	     30.71546582	     -5.14073533	    -17.17054481	     41.62637118	      0.72651723	      6.12829500	    -19.66829971	      0.00000000	     27.73842374	      5.24738626	     12.91752785	     36.17859332	      0.63143557	      1.97645857	     11.84912368	      0.00000000	      0.05444856	      0.15094953	     -0.46480756	      0.10111642	      0.20076288	     -0.49385803	      0.08945354	      0.36701870	     -0.49385803	      0.06222926	      0.36701870	     -0.40670661	      0.05056093	      0.30781629	     -0.37765614	      0.03111191	      0.23382083	     -0.34860567	      0.38892062	      1.70757133	     -2.58512019	      0.00000000	      0.00000000	      0.00000000	      0.00000000	     -0.00000000	    189.61719071	   -185.01608644	    139.00269546	    132.21584401	     59.77744337	      0.00000000	      5.00000014	   -164.45923195	   -201.62573327	   -464.60309479	     50.66196828	     36.79896565	      0.00000000	      5.00000014
      9.76666670	     24.37287938	      5.55988394	    -94.58067657	      0.51037251	      0.90852757	      0.05930774	     30.63457966	     -5.12947137	    -17.15552616	     41.59330317	      0.72594009	      6.03225977	    -19.66792064	      0.00000000	     27.61863457	      5.25395983	     13.02473362	     36.12850226	      0.63056132	      2.12450760	     11.82419080	      0.00000000	      0.05649939	      0.15404369	     -0.54812987	      0.10492502	      0.20487810	     -0.58238798	      0.09282285	      0.37454182	     -0.58238798	      0.06457315	      0.37454182	     -0.47961363	      0.05246534	      0.31412589	     -0.44535552	      0.03228375	      0.23861367	     -0.41109740	      0.40356950	      1.74257300	     -3.04853389	      0.00000000	      0.00000000	      0.00000000	      0.00000000	     -0.00000000	    188.83772891	   -184.16796447	    143.81025939	    131.57484624	     59.98048068	      0.00000000	      5.00000014	   -164.55925683	   -200.89883553	   -465.33010755	     51.06313005	     36.48326508	      0.00000000	      5.00000014
      9.78333330	     24.37971618	      5.49689734	    -94.60593219	      0.51001542	      0.90834043	      0.05945952	     30.55147730	     -5.11161685	    -17.15088880	     41.57728321	      0.72566049	      5.97869032	    -19.66757628	      0.00000000	     27.50836148	      5.25608149	     13.11885552	     36.09821157	      0.63003265	      2.20942521	     11.72507064	      0.00000000	      0.06129656	      0.13032954	     -0.55963266	      0.11383384	      0.17333828	     -0.59460970	      0.10070412	      0.31688323	     -0.59460970	      0.07005584	      0.31688323	     -0.48967858	      0.05691999	      0.26576799	     -0.45470154	      0.03502486	      0.20188045	     -0.41972450	      0.43783521	      1.47431377	     -3.11250897	      0.00000000	      0.00000000	      0.00000000	      0.00000000	     -0.00000000	    188.36553005	   -183.79193550	    144.69227755	    130.15064087	     60.52497085	      0.00000000	      5.00000014	   -164.92889151	   -199.79939458	   -466.39954587	     51.61691356	     35.95580907	      0.00000000	      5.00000014
      9.80000000	     24.37402685	      5.44021651	    -94.59506278	      0.50955853	      0.90809800	      0.05959190	     30.46898711	     -5.06864259	    -17.15071847	     41.57221028	      0.72557195	      6.01841095	    -19.66739559	      0.00000000	     27.42696777	      5.23223193	     13.17560867	     36.10261452	      0.63010949	      2.25234837	     11.67455864	      0.00000000	      0.07005728	      0.09234837	     -0.59563706	      0.13010338	      0.12282333	     -0.63286437	      0.11509711	      0.22453582	     -0.63286437	      0.08006847	      0.22453582	     -0.52118243	      0.06505519	      0.18831679	     -0.48395511	      0.04003073	      0.14304762	     -0.44672779	      0.50041216	      1.04466320	     -3.31275463	      0.00000000	      0.00000000	      0.00000000	      0.00000000	     -0.00000000	    188.29112842	   -183.75623538	    143.13568865	    127.85705351	     60.27738206	      0.00000000	      5.00000014	   -165.38775573	   -198.14699466	   -467.53344114	     52.61564176	     35.85253800	      0.00000000	      5.00000014
      9.81666670	     24.34991346	      5.38351062	    -94.52776157	      0.50906157	      0.90788312	      0.05977409	     30.36232904	     -5.02795023	    -17.24056797	     41.56148331	      0.72538473	      6.06994256	    -19.66783044	      0.00000000	     27.34444399	      5.23102827	     13.33884005	     36.11513247	      0.63032797	      2.17481809	     11.40332714	      0.00000000	      0.08152947	      0.03892882	     -0.53410859	      0.15140838	      0.05177533	     -0.56749038	      0.13394477	      0.09465154	     -0.56749038	      0.09318003	      0.09465154	     -0.46734502	      0.07570827	      0.07938365	     -0.43396323	      0.04658594	      0.06030074	     -0.40058144	      0.58235685	      0.44037061	     -2.97055175	      0.00000000	      0.00000000	      0.00000000	      0.00000000	     -0.00000000	    188.47953244	   -183.93042835	    138.29271800	    125.23242150	     60.04298971	      0.00000000	      5.00000014	   -165.89254221	   -196.00446399	   -468.24378665	     54.23172410	     35.95719995	      0.00000000	      5.00000014
      9.83333330	     24.47434209	      5.29335688	    -94.63540742	      0.50813629	      0.90760147	      0.05989054	     30.31071478	     -5.02652357	    -17.06420082	     41.62571823	      0.72650584	      6.11185195	    -19.67271078	      0.00000000	     27.20665041	      5.26743595	     13.22720346	     36.04551918	      0.62911299	      2.05341400	     11.15547104	      0.00000000	      0.09557453	     -0.05995739	     -0.23250726	      0.17749145	     -0.07974333	     -0.24703897	      0.15701939	     -0.14578040	     -0.24703897	      0.10923213	     -0.14578040	     -0.20344385	      0.08875051	     -0.12226511	     -0.18891215	      0.05461128	     -0.09287400	     -0.17438045	      0.68267929	     -0.67825000	     -1.29313564	      0.00000000	      0.00000000	      0.00000000	      0.00000000	     -0.00000000	    188.62442389	   -183.99630541	    130.29916036	    122.16770557	     59.24728907	      0.00000000	      5.00000014	   -166.00068898	   -193.62470655	   -467.15658064	     55.52771427	     36.96543503	      0.00000000	      5.00000014
      9.85000000	     24.39994061	      5.18561194	    -94.57901235	      0.50736840	      0.90758292	      0.06008737	     30.12991458	     -4.90504128	    -17.15187123	     41.59754369	      0.72601410	      6.13705890	    -19.67552399	      0.00000000	     27.05854523	      5.18935240	     13.33069748	     36.04951807	      0.62918278	      1.85943774	     10.87347033	      0.00000000	      0.10915064	     -0.11662330	     -0.08611192	      0.20270365	     -0.15510900	     -0.09149391	      0.17932358	     -0.28355790	     -0.09149391	      0.12474826	     -0.28355790	     -0.07534793	      0.10135728	     -0.23781824	     -0.06996593	      0.06236867	     -0.18064950	     -0.06458394	      0.77965208	     -1.31926615	     -0.47892864	      0.00000000	      0.00000000	      0.00000000	      0.00000000	     -0.00000000	    189.37167364	   -183.33317513	    123.81959766	    118.38032132	     60.09893046	      0.00000000	      5.00000014	   -166.33793976	   -190.47932712	   -467.31646344	     58.02792573	     36.76184161	      0.00000000	      5.00000014
      9.86666670	     24.24947102	      5.09643006	    -94.48042421	      0.50655846	      0.90760836	      0.06022826	     29.93756560	     -4.70456272	    -17.31552212	     41.53134854	      0.72485877	      6.16117999	    -19.67983582	      0.00000000	     26.93239333	      5.03383072	     13.45334781	     36.05163982	      0.62921982	      1.70298768	     10.61813143	      0.00000000	      0.12534929	     -0.15295534	     -0.06863317	      0.23278617	     -0.20343060	     -0.07292275	      0.20593635	     -0.37189561	     -0.07292275	      0.14326171	     -0.37189561	     -0.06005403	      0.11639935	     -0.31190653	     -0.05576445	      0.07162459	     -0.23692782	     -0.05147488	      0.89535747	     -1.73026138	     -0.38171712	      0.00000000	      0.00000000	      0.00000000	      0.00000000	     -0.00000000	    190.50591980	   -182.15361380	    119.07321281	    114.28712564	     56.30980512	      0.00000000	      5.00000014	   -167.14903588	   -186.58388765	   -468.92810726	     61.46230980	     38.67830499	      0.00000000	      5.00000014
      9.88333330	     24.18293188	      4.99151221	    -94.48914239	      0.50560722	      0.90761998	      0.06035675	     29.77106320	     -4.53460256	    -17.33452033	     41.49408957	      0.72420848	      6.17215853	    -19.68593519	      0.00000000	     26.77726370	      4.92067416	     13.46918345	     36.00777811	      0.62845428	      1.40012318	     10.34471453	      0.00000000	      0.14684253	     -0.20205461	      0.16919466	      0.27270127	     -0.26873263	      0.17976933	      0.24124760	     -0.49127558	      0.17976933	      0.16782633	     -0.49127558	      0.14804533	      0.13635798	     -0.41202976	      0.13747066	      0.08390582	     -0.31298259	      0.12689600	      1.04888153	     -2.28568216	      0.94100995	      0.00000000	      0.00000000	      0.00000000	      0.00000000	     -0.00000000	    191.27091219	   -180.42102710	    113.04193761	    110.54983069	     55.24416079	      0.00000000	      5.00000014	   -167.36036820	   -182.31728790	   -469.17831734	     65.03879283	     39.56356304	      0.00000000	      5.00000014
      9.90000000	     23.87270996	      4.85922679	    -94.39938052	      0.50482724	      0.90781097	      0.06045627	     29.45708393	     -4.14598047	    -17.54318359	     41.29170206	      0.72067615	      6.12040372	    -19.69402398	      0.00000000	     26.61753586	      4.59041960	     13.58046881	     36.05262490	      0.62923701	      1.23266321	     10.21223513	      0.00000000	      0.16476766	     -0.19634973	      0.26118475	      0.30599002	     -0.26114514	      0.27750879	      0.27069679	     -0.47740474	      0.27750879	      0.18831296	     -0.47740474	      0.22853665	      0.15300325	     -0.40039637	      0.21221261	      0.09414824	     -0.30414573	      0.19588856	      1.17691892	     -2.22114743	      1.45263121	      0.00000000	      0.00000000	      0.00000000	      0.00000000	     -0.00000000	    192.25745624	   -178.27679914	    109.32820848	    106.72797393	     54.04724896	      0.00000000	      5.00000014	   -167.80015951	   -177.51778257	   -470.31782077	     69.16840097	     40.29175508	      0.00000000	      5.00000014
